<svg height="512pt" viewBox="0 0 512.021 512" width="512pt" xmlns="http://www.w3.org/2000/svg"><path d="M512 200.043v52.965c-3.797-1.235-7.68-2.293-11.477-3.352-5.648-1.504-11.21-2.828-16.773-3.886a141.795 141.795 0 00-11.738-2.118 131.155 131.155 0 00-11.653-1.59c-5.12-.707-10.328-1.148-15.449-1.5a40.028 40.028 0 00-4.59-.265c-1.058-.086-2.207-.086-3.355-.176-.527 0-1.059-.09-1.676-.09-1.59-.086-3.266-.176-4.945-.176-3.617-.085-7.239-.085-10.77-.085-2.648 0-5.383 0-8.031.085-2.121 0-4.148.09-6.27.176h-.617c-1.148 0-2.383.09-3.531.18-3.617.086-7.238.262-10.855.617-.86-.035-1.72.027-2.563.176-3 .176-6.004.441-9.094.707-2.558.262-5.117.441-7.68.793-3.44.266-6.882.617-10.328 1.148-6.355.707-12.796 1.59-19.156 2.559-4.234.531-8.562 1.238-12.797 1.941h-.265a744.283 744.283 0 00-19.422 3.18v105.93l-8.828 1.59c-11.739 2.03-23.57 4.148-35.309 6.18l-8.828 1.59V260.686a744.283 744.283 0 01-19.422 3.18c-20.566 3.266-41.137 6.004-61.703 7.328a324.848 324.848 0 01-121.91-12.183v-52.965a323.76 323.76 0 00121.734 12.18c20.656-1.325 41.223-4.059 61.88-7.325a744.279 744.279 0 0019.421-3.18V101.794l8.828-1.59c11.738-2.031 23.57-4.148 35.309-6.18l8.828-1.59v105.934a744.279 744.279 0 0119.422-3.18c0-.085.086-.085.175-.085l.09.086c4.942-.883 9.887-1.59 14.828-2.293 5.211-.707 10.418-1.415 15.625-2.032a.127.127 0 01.09-.039c.032 0 .063.016.086.04 10.242-1.239 20.48-2.298 30.809-3 2.562-.18 5.031-.356 7.504-.442a69.17 69.17 0 017.414-.356c.09-.086.09-.086.18 0 1.234-.086 2.558-.086 3.792-.086 6.27-.265 12.536-.265 18.805-.09h2.383c1.324 0 2.559.09 3.883.176 2.031 0 4.062.09 6.094.266 3.351.176 6.707.441 10.062.707 3.355.266 6.707.617 10.063 1.059s6.71.793 10.062 1.324c3.004.441 6.004.883 9.008 1.5 1.41.266 2.91.531 4.41.883 2.207.441 4.504.883 6.71 1.414 3.356.703 6.708 1.586 10.063 2.469 3.797 1.062 7.68 2.12 11.477 3.355zm0 0" fill="#e6e7e8"/><path d="M512 209.223v33.988l-8.828-1.941-.266-.09c-6.531-1.766-12.18-3.09-17.476-4.059-3.973-.883-8.121-1.68-12.27-2.207-3.71-.707-7.86-1.238-12.008-1.68a275.244 275.244 0 00-15.625-1.5 45.49 45.49 0 00-5.207-.265l-2.738-.176c-1.145-.09-1.676-.09-2.293-.09a75.078 75.078 0 00-4.945-.176c-3.442-.086-7.149-.086-10.77-.086-2.734 0-5.558 0-8.297.086h-.175c-1.766 0-3.707.09-5.739.176-2.031.09-3.531.09-4.855.18-3.442.086-7.238.262-11.121.617h-.442a14.62 14.62 0 00-2.297.266c-2.558.086-5.12.351-7.68.527l-3.796.355c-1.852.176-3.617.352-5.473.618-3.09.175-6.797.617-10.418 1.148-6.09.703-12.71 1.586-19.156 2.559a353.591 353.591 0 00-12.355 1.855l-.707.086c-6.532.973-13.153 2.031-19.688 3.266l-7.238 1.238v114.934c-11.739 2.03-23.57 4.148-35.309 6.18V250.183l-10.418 1.855c-6.355 1.059-12.8 2.117-19.156 3.09-24.012 3.793-43.43 6.09-60.91 7.238-10.239.707-20.215 1.059-29.57 1.059a296.207 296.207 0 01-82.981-10.946l-8.828-2.648v-34.957l8.828 2.91a314.196 314.196 0 0082.805 10.328c9.797 0 20.125-.351 30.718-1.058 18.274-1.235 37.606-3.442 62.676-7.414 6.446-.973 13.063-2.032 19.598-3.266l7.238-1.238V100.203c11.738-2.031 23.57-4.148 35.309-6.18v114.848l10.418-1.855c4.941-.883 10.062-1.676 15.093-2.47h.09s5.473-.882 5.914-.882l5.563-.883v-.09c2.383-.351 4.765-.707 7.148-.968 4.063-.621 11.742-1.59 11.742-1.59l4.239-.531c11.472-1.325 21.183-2.293 30.363-2.915 2.563-.175 4.856-.351 7.242-.44a28.01 28.01 0 013.617-.263l.176.176 3.707-.265h3.09l.09-.09h.351c3.711-.176 7.063-.176 10.329-.176 2.738 0 5.476 0 8.21.09h2.649c.973 0 1.941.086 2.914.176h.969c1.765 0 3.531.09 5.387.265 3.53.176 6.796.442 10.062.707 3.266.262 6.445.528 9.621.969 3.445.355 6.621.797 9.8 1.324 3.177.531 5.825.797 8.653 1.414 1.852.352 3 .528 4.149.793l1.41.356 5.297 1.058c3.355.703 6.445 1.586 9.535 2.383 0 0 3.973 1.059 5.207 1.41zm0 0" fill="#e64c3c"/><path d="M450.031 346.848c-47.05-4.063-94.015 2.382-141.066 10.414v-81.477a776.983 776.983 0 01141.066 71.063zm0 0" fill="#285680"/><path d="M512 323.363v17.922a12.463 12.463 0 01-6.797 11.828c-3.707-3.176-7.258-.652-10.965-3.742.09-.793.106-7.203.106-8.086v-17.922a558.927 558.927 0 00-119.438-81.3c1.239-.09 2.473-.266 3.707-.352 3.09-.266 6.094-.531 9.094-.707.844-.149 1.703-.211 2.563-.176A562.026 562.026 0 01512 323.363zm0 0" fill="#e6e7e8"/><path d="M494.344 323.363v17.922c0 .883 0 7.293-.106 8.086-55.261-45.285-121.183-77.473-176.445-100.715 4.238-.707 19.422-1.914 23.656-2.445 6.36-.969 12.801-1.852 19.156-2.559 3.446-.355 6.887-.797 10.329-1.148 1.324-.176 2.648-.352 3.972-.442a558.927 558.927 0 01119.438 81.301zm0 0" fill="#e64c3c"/><path d="M494.344 323.363v17.922c0 .883 0 4.598-.106 5.395a627.92 627.92 0 00-158.789-99.496c4.235-.707 1.766-.442 6-.973 6.36-.969 12.801-1.852 19.156-2.559 3.446-.355 6.887-.797 10.329-1.148 1.324-.176 2.648-.352 3.972-.441a558.927 558.927 0 01119.438 81.3zm0 0" fill="#e64c3c"/><path d="M512 253.008v70.355a562.026 562.026 0 00-121.73-82.535c3.617-.265 7.238-.441 10.855-.617 1.148-.09 2.383-.18 3.531-.18h.617c2.122-.086 4.149-.176 6.27-.176 2.117 0 4.148-.085 6.266-.085 4.148 0 8.3 0 12.535.085 1.68 0 3.355.09 4.945.176.617 0 1.149.09 1.676.09 1.148.09 2.297.09 3.355.176 1.535 0 3.067.09 4.59.266 5.121.351 10.328.792 15.45 1.5 3.882.44 7.765.972 11.652 1.59 3.883.617 7.855 1.324 11.738 2.117 5.563 1.058 11.125 2.382 16.773 3.886 3.797 1.059 7.68 2.117 11.477 3.352zm0 0" fill="#285680"/><path d="M52.965 64.895v429.46c-.028 9.739-7.914 17.625-17.656 17.657-9.72-.074-17.582-7.938-17.653-17.657V65.335a34.821 34.821 0 0035.309-.44zm0 0" fill="#f0c419"/><path d="M69.914 34.969c0 19.304-15.652 34.957-34.957 34.957S0 54.273 0 34.969C0 15.66 15.652.012 34.957.012 54.262.016 69.91 15.664 69.914 34.969zm0 0" fill="#cb8252"/><path d="M256 101.793v81.477a777.217 777.217 0 01-141.066-71.06v-.089A555.257 555.257 0 00256 101.793zm0 0" fill="#285680"/><path d="M256 183.27v24.453a744.279 744.279 0 01-19.422 3.18c-61.176-25.688-122.172-56.145-183.348-110.7a282.255 282.255 0 0061.704 11.918v.09A777.217 777.217 0 00256 183.27zm0 0" fill="#e6e7e8"/><path d="M236.578 210.902c-20.656 3.266-41.223 6-61.879 7.325A561.911 561.911 0 0152.965 135.69v-35.578h.176l.09.09c2.824 2.559 5.738 5.031 8.562 7.414a612.971 612.971 0 00165.957 99.488c2.914 1.325 5.918 2.56 8.828 3.797zm0 0" fill="#e6e7e8"/><path d="M232.094 207.828c-14.742 2.121-33.824 3.074-48.551 4.043a562.01 562.01 0 01-121.75-82.535v-21.719c63.266 41.73 114.953 76.555 170.3 100.211zm0 0" fill="#e64c3c"/><path d="M174.7 218.227a323.76 323.76 0 01-121.735-12.18V135.69a561.911 561.911 0 00121.734 82.536zm0 0M174.875 271.195v.086a432.901 432.901 0 01-121.91 58.086v-70.355a324.848 324.848 0 00121.91 12.183zm0 0" fill="#285680"/><path d="M256 260.688v24.453a931.474 931.474 0 01-140.887 91.808h-.09a278.552 278.552 0 01-61.882-12.008 86.29 86.29 0 006.445-1.851 276.015 276.015 0 0046.61 7.68l-2.473-5.243c46.965-23.129 71.25-66.297 118.21-101.52l25.239-1.905c2.914-.352 5.914-.883 8.828-1.415zm0 0" fill="#e6e7e8"/><path d="M242.758 274.953a849.88 849.88 0 01-135.196 95.094l-1.277.723h-.09a276.015 276.015 0 01-46.61-7.68c59.06-16.95 100.946-52.887 160-96.223 3.532-.527 32.884-3.148 36.415-3.855zm0 0" fill="#e64c3c"/><path d="M256 285.14v81.481a554.198 554.198 0 01-140.887 10.328A931.474 931.474 0 00256 285.141zm0 0" fill="#285680"/><path d="M228.96 261.8c-61.167 44.934-114.644 87.165-175.82 103.141h-.175v-35.574a432.901 432.901 0 00121.91-58.086v-.086a525.955 525.955 0 0054.086-9.394zm0 0" fill="#e6e7e8"/><path d="M512 129.688v70.355c-3.797-1.234-7.68-2.293-11.477-3.356-3.355-.882-6.707-1.765-10.062-2.468-2.297-.531-4.504-1.063-6.711-1.414-1.5-.352-3-.618-4.41-.883-3.004-.617-6.004-1.059-9.008-1.5-3.352-.531-6.707-1.059-10.062-1.324a96.54 96.54 0 00-10.063-1.059c-3.355-.355-6.71-.617-10.062-.707a70.65 70.65 0 00-6.094-.266c-1.324-.086-2.559-.175-3.883-.175h-2.383c-6.27-.176-12.535-.176-18.805.09-1.234 0-2.558 0-3.792.085-.09-.086-.09-.086-.18 0a69.17 69.17 0 00-7.414.356 68.82 68.82 0 00-7.504.441v-.09A433.008 433.008 0 01512 129.688zm0 0" fill="#285680"/><path d="M512 111.77v17.918a433.008 433.008 0 00-121.91 58.085v.09c-10.238.617-20.567 1.676-30.809 3a.125.125 0 00-.086-.039.127.127 0 00-.09.04c-5.207.527-10.414 1.234-15.625 2.03-4.94.704-9.886 1.41-14.828 2.293l-.09-.085c58.88-43.344 117.762-82.098 176.641-99.223a23.955 23.955 0 016.797 15.89zm0 0" fill="#e6e7e8"/><path d="M505.203 95.879c-58.879 17.125-117.762 55.879-176.64 99.223-.09 0-.176 0-.176.085-3.532.532-7.063 1.06-10.594 1.766-2.914.356-5.914.883-8.828 1.414v-24.453c47.05-35.223 94.015-68.766 141.066-91.894a287.178 287.178 0 0144.313 7.148 21.647 21.647 0 018.742 4.68h.086c.707.707 1.414 1.324 2.031 2.03zm0 0" fill="#e6e7e8"/><path d="M309.7 189.434c30.163-24.825 102.109-79.61 149.16-102.739a208.985 208.985 0 0137.69 6.563c.708.695-.616-.715 0 0-55.445 28.96-82.905 47.668-141.796 91.027zm0 0" fill="#e64c3c"/><path d="M450.031 82.02c-47.05 23.128-94.015 56.671-141.066 91.894v-81.48c47.05-8.032 94.015-14.477 141.066-10.414zm0 0" fill="#285680"/><path d="M505.203 353.113a15.917 15.917 0 01-10.86.883 287.178 287.178 0 00-44.312-7.148 776.983 776.983 0 00-141.066-71.063v-24.453c6.445-1.148 4.414-2.074 10.851-3.047l2.207-.547a990.74 990.74 0 01183.18 105.375zm0 0" fill="#e6e7e8"/></svg>